<?xml version="1.0" encoding="UTF-8" standalone="no"?>
<svg
        xmlns:dc="http://purl.org/dc/elements/1.1/"
        xmlns:cc="http://creativecommons.org/ns#"
        xmlns:rdf="http://www.w3.org/1999/02/22-rdf-syntax-ns#"
        xmlns:svg="http://www.w3.org/2000/svg"
        xmlns="http://www.w3.org/2000/svg"
        viewBox="0 0 263.45334 44.026669"
        height="44.026669"
        width="263.45334"
        xml:space="preserve"
        id="svg2"
        version="1.1"><metadata
     id="metadata8"><rdf:RDF><cc:Work
         rdf:about=""><dc:format>image/svg+xml</dc:format><dc:type
        rdf:resource="http://purl.org/dc/dcmitype/StillImage"/></cc:Work></rdf:RDF></metadata>
    <defs
            id="defs6"/>
    <g
            transform="matrix(1.3333333,0,0,-1.3333333,0,44.026667)"
            id="g10"><g
       transform="scale(0.1)"
       id="g12"><path
         id="path14"
         style="fill:#231f20;fill-opacity:1;fill-rule:nonzero;stroke:none"
         d="M 40.9141,325.941 H 0 V 131.117 h 93.1133 v 37.668 H 40.9141 v 157.156" /><path
            id="path16"
            style="fill:#231f20;fill-opacity:1;fill-rule:nonzero;stroke:none"
            d="m 110.281,131.117 h 96.895 v 37.668 h -55.981 v 45.754 h 55.981 v 37.664 h -55.981 v 36.074 h 55.981 v 37.664 H 110.281 V 131.117"/><path
            id="path18"
            style="fill:#231f20;fill-opacity:1;fill-rule:nonzero;stroke:none"
            d="m 318.512,193.539 c 0,-19.375 -6.461,-27.988 -24.758,-27.988 -18.289,0 -24.75,8.613 -24.75,27.988 V 325.941 H 228.102 V 187.078 c 0,-34.437 17.769,-59.203 65.652,-59.203 47.91,0 65.676,24.766 65.676,59.203 V 325.941 H 318.512 V 193.539"/><path
            id="path20"
            style="fill:#231f20;fill-opacity:1;fill-rule:nonzero;stroke:none"
            d="m 452.117,291.488 c 15.602,0 25.836,-8.07 26.918,-42.781 h 41.977 c 0.535,45.199 -23.961,80.461 -72.125,80.461 -43.602,0 -72.121,-32.824 -72.121,-100.648 0,-67.821 28.519,-100.633 72.121,-100.633 46.824,0 71.847,34.687 72.125,78.828 h -41.977 c -1.082,-20.723 -5.656,-41.164 -26.918,-41.164 -18.836,0 -33.367,16.691 -33.367,62.969 0,46.285 14.531,62.968 33.367,62.968"/><path
            id="path22"
            style="fill:#231f20;fill-opacity:1;fill-rule:nonzero;stroke:none"
            d="m 630.797,252.203 h -48.703 v 73.738 H 541.191 V 131.117 h 40.903 v 83.422 h 48.703 v -83.422 h 40.906 v 194.824 h -40.906 v -73.738"/><path
            id="path24"
            style="fill:#231f20;fill-opacity:1;fill-rule:nonzero;stroke:none"
            d="M 687.645,288.262 H 721.02 V 131.117 h 40.91 v 157.145 h 33.355 v 37.679 h -107.64 v -37.679"/><path
            id="path26"
            style="fill:#231f20;fill-opacity:1;fill-rule:nonzero;stroke:none"
            d="m 811.32,288.262 h 33.364 V 131.117 h 40.906 v 157.145 h 33.359 v 37.679 H 811.32 v -37.679"/><path
            id="path28"
            style="fill:#231f20;fill-opacity:1;fill-rule:nonzero;stroke:none"
            d="m 1025.43,193.539 c 0,-19.375 -6.47,-27.988 -24.78,-27.988 -18.283,0 -24.744,8.613 -24.744,27.988 V 325.941 H 935.004 V 187.078 c 0,-34.437 17.758,-59.203 65.646,-59.203 47.92,0 65.68,24.766 65.68,59.203 v 138.863 h -40.9 V 193.539"/><path
            id="path30"
            style="fill:#231f20;fill-opacity:1;fill-rule:nonzero;stroke:none"
            d="m 1141.77,239.82 h -13.46 v 48.442 h 13.46 c 16.65,0 26.35,-8.078 26.35,-24.215 0,-16.152 -9.7,-24.227 -26.35,-24.227 z m 27.96,-30.136 c 28.8,4.027 40.38,31.761 40.38,53.554 0,33.641 -23.17,62.703 -58.13,62.703 H 1087.4 V 131.117 h 40.91 v 75.879 h 0.54 l 43.05,-75.879 h 46.83 l -49,78.567"/><path
            id="path32"
            style="fill:#231f20;fill-opacity:1;fill-rule:nonzero;stroke:none"
            d="m 1322.88,195.164 h -0.54 l -28.53,130.777 h -58.13 V 131.117 h 36.08 v 151.242 h 0.52 l 35.54,-151.242 h 29.59 l 35.54,151.242 h 0.51 V 131.117 h 36.06 v 194.824 h -58.11 l -28.53,-130.777"/><path
            id="path34"
            style="fill:#231f20;fill-opacity:1;fill-rule:nonzero;stroke:none"
            d="m 1437.84,309.203 h 33.74 V 130.328 h 19.66 V 327.02 h -53.4 v -17.817"/><path
            id="path36"
            style="fill:#231f20;fill-opacity:1;fill-rule:nonzero;stroke:none"
            d="m 1575.13,210.867 c -27.91,0 -47.57,23.387 -47.57,50.762 0,28.18 19.66,50.762 47.57,50.762 32.16,0 47.58,-28.426 47.58,-50.227 0,-30.832 -22.58,-51.297 -47.58,-51.297 z m 0,119.344 c -42.79,0 -67.24,-34.82 -67.24,-68.844 0,-37.492 27.64,-68.32 66.2,-68.32 6.11,0 12.75,1.336 18.34,4.273 l 0.52,-0.281 -45.44,-66.711 h 22.33 l 48.89,72.297 c 12.22,18.34 23.64,35.098 23.64,57.672 0,38.008 -25.74,69.914 -67.24,69.914"/><path
            id="path38"
            style="fill:#231f20;fill-opacity:1;fill-rule:nonzero;stroke:none"
            d="m 1644.34,309.203 h 33.74 V 130.328 h 19.7 V 327.02 h -53.44 v -17.817"/><path
            id="path40"
            style="fill:#231f20;fill-opacity:1;fill-rule:nonzero;stroke:none"
            d="m 1718.33,327.02 v -17.817 h 93.55 l -81.06,-178.875 h 20.77 l 80.49,178.875 v 17.817 h -113.75"/><path
            id="path42"
            style="fill:#231f20;fill-opacity:1;fill-rule:nonzero;stroke:none"
            d="m 30.332,14.8086 c 2.3086,0 4.5547,0.3633 6.7383,1.125 2.1719,0.7422 4.1172,1.9922 5.8203,3.7187 1.6992,1.7383 3.0625,3.9961 4.0821,6.7891 1.0234,2.8008 1.5312,6.1992 1.5312,10.2149 0,3.6796 -0.3555,6.9921 -1.0742,9.9609 -0.7109,2.957 -1.8828,5.4961 -3.5195,7.6055 -1.6289,2.1093 -3.793,3.7226 -6.4844,4.8554 -2.6914,1.1211 -6.0039,1.6797 -9.961,1.6797 H 16.0352 V 14.8086 Z m 1.1211,59.4258 c 4.6992,0 9.0703,-0.7422 13.125,-2.2461 4.0508,-1.4961 7.5547,-3.7422 10.5157,-6.7422 2.9609,-2.9961 5.2773,-6.7344 6.9453,-11.2266 1.6679,-4.4922 2.4961,-9.7656 2.4961,-15.832 0,-5.3008 -0.6797,-10.2148 -2.0352,-14.6953 C 61.1328,18.9883 59.0703,15.1133 56.3242,11.8516 53.5625,8.57031 50.1211,6.01172 46.0039,4.13672 41.8906,2.26172 37.0352,1.32422 31.4531,1.32422 H 0 V 74.2344 Z M 106.395,41.7617 c -1.739,1.9141 -4.372,2.8594 -7.9145,2.8594 -2.3086,0 -4.2344,-0.3984 -5.7696,-1.1797 -1.5312,-0.7812 -2.75,-1.7461 -3.6718,-2.9101 -0.918,-1.1524 -1.5743,-2.3829 -1.9453,-3.6719 C 86.7188,35.5703 86.5,34.4102 86.4297,33.3945 H 110.02 c -0.68,3.6719 -1.887,6.4649 -3.625,8.3672 M 90.0039,13.9883 c 2.1797,-2.1172 5.3125,-3.1641 9.3984,-3.1641 2.9217,0 5.4417,0.7227 7.5547,2.1992 2.109,1.4532 3.402,3.0079 3.879,4.6485 h 12.766 C 121.563,11.332 118.426,6.80078 114.207,4.08594 109.984,1.36328 104.879,0.00390625 98.8945,0.00390625 c -4.1601,0 -7.8984,0.65624975 -11.2343,1.98437375 -3.336,1.32813 -6.168,3.21094 -8.4766,5.66406 -2.3125,2.46096 -4.1055,5.37896 -5.3594,8.78906 -1.2656,3.3984 -1.8906,7.1484 -1.8906,11.2305 0,3.9453 0.6484,7.625 1.9375,11.0312 1.293,3.4024 3.1289,6.3399 5.5195,8.8321 2.3828,2.4882 5.2227,4.4414 8.5235,5.8671 3.3007,1.4258 6.957,2.1485 10.9804,2.1485 4.4885,0 8.3985,-0.8672 11.7465,-2.6055 3.324,-1.7422 6.074,-4.0742 8.211,-6.9922 2.148,-2.9297 3.691,-6.2695 4.648,-10.0117 0.953,-3.75 1.293,-7.6562 1.02,-11.7383 H 86.4297 c 0.207,-4.707 1.4023,-8.1054 3.5742,-10.2148 m 57.5431,40.1289 v -7.3438 h 0.308 c 1.84,3.0547 4.223,5.2813 7.149,6.6875 2.93,1.3868 5.922,2.0899 8.988,2.0899 3.879,0 7.063,-0.5274 9.547,-1.582 2.484,-1.0547 4.441,-2.5196 5.867,-4.3946 1.438,-1.875 2.438,-4.1484 3.016,-6.8437 0.574,-2.6875 0.875,-5.6641 0.875,-8.9375 V 1.32422 H 168.789 V 31.1484 c 0,4.3438 -0.68,7.6055 -2.043,9.7539 -1.359,2.1407 -3.773,3.2149 -7.25,3.2149 -3.945,0 -6.805,-1.1836 -8.578,-3.5274 -1.77,-2.3437 -2.656,-6.2109 -2.656,-11.5937 V 1.32422 H 133.758 V 54.1172 Z m 62.656,20.1172 V 35.1328 l 18.281,18.9844 h 17.157 L 225.727,34.7109 247.891,1.32422 h -17.567 l -14.5,23.59378 -5.621,-5.4219 V 1.32422 H 195.707 V 74.2344 Z m 72.692,-32.4727 c -1.739,1.9141 -4.375,2.8594 -7.915,2.8594 -2.316,0 -4.246,-0.3984 -5.773,-1.1797 -1.527,-0.7812 -2.754,-1.7461 -3.672,-2.9101 -0.918,-1.1524 -1.57,-2.3829 -1.941,-3.6719 -0.375,-1.2891 -0.598,-2.4492 -0.664,-3.4649 h 23.59 c -0.68,3.6719 -1.891,6.4649 -3.625,8.3672 M 266.504,13.9883 c 2.176,-2.1172 5.312,-3.1641 9.394,-3.1641 2.922,0 5.446,0.7227 7.559,2.1992 2.109,1.4532 3.402,3.0079 3.875,4.6485 h 12.77 C 298.063,11.332 294.926,6.80078 290.703,4.08594 286.484,1.36328 281.375,0.00390625 275.387,0.00390625 c -4.153,0 -7.895,0.65624975 -11.235,1.98437375 -3.332,1.32813 -6.16,3.21094 -8.468,5.66406 -2.317,2.46096 -4.11,5.37896 -5.364,8.78906 -1.261,3.3984 -1.894,7.1484 -1.894,11.2305 0,3.9453 0.648,7.625 1.945,11.0312 1.289,3.4024 3.129,6.3399 5.516,8.8321 2.379,2.4882 5.218,4.4414 8.519,5.8671 3.309,1.4258 6.965,2.1485 10.981,2.1485 4.496,0 8.406,-0.8672 11.742,-2.6055 3.336,-1.7422 6.078,-4.0742 8.223,-6.9922 2.148,-2.9297 3.691,-6.2695 4.648,-10.0117 0.949,-3.75 1.293,-7.6562 1.02,-11.7383 h -38.09 c 0.203,-4.707 1.39,-8.1054 3.574,-10.2148 m 57.543,40.1289 v -7.3438 h 0.308 c 1.833,3.0547 4.223,5.2813 7.141,6.6875 2.938,1.3868 5.926,2.0899 8.984,2.0899 3.887,0 7.067,-0.5274 9.559,-1.582 2.484,-1.0547 4.438,-2.5196 5.867,-4.3946 1.426,-1.875 2.438,-4.1484 3.016,-6.8437 0.574,-2.6875 0.867,-5.6641 0.867,-8.9375 V 1.32422 H 345.285 V 31.1484 c 0,4.3438 -0.68,7.6055 -2.043,9.7539 -1.359,2.1407 -3.773,3.2149 -7.246,3.2149 -3.957,0 -6.808,-1.1836 -8.578,-3.5274 -1.773,-2.3437 -2.656,-6.2109 -2.656,-11.5937 V 1.32422 H 310.258 V 54.1172 Z m 89.25,0 v -7.1406 h 0.207 c 1.898,2.7148 4.199,4.8242 6.891,6.3281 2.691,1.4961 5.773,2.2461 9.238,2.2461 3.336,0 6.383,-0.6524 9.14,-1.9414 2.758,-1.3008 4.856,-3.5742 6.282,-6.836 1.566,2.3047 3.687,4.3555 6.379,6.1211 2.691,1.7657 5.879,2.6563 9.55,2.6563 2.793,0 5.383,-0.3399 7.758,-1.0235 2.387,-0.6757 4.43,-1.7695 6.137,-3.2617 1.695,-1.5039 3.023,-3.457 3.976,-5.8789 0.954,-2.414 1.426,-5.3242 1.426,-8.7304 V 1.32422 h -14.5 V 31.2461 c 0,1.7656 -0.07,3.4375 -0.203,5.0078 -0.137,1.5625 -0.512,2.9219 -1.121,4.082 -0.609,1.1524 -1.519,2.0704 -2.703,2.7539 -1.191,0.6758 -2.809,1.0274 -4.856,1.0274 -2.046,0 -3.691,-0.4024 -4.953,-1.1836 -1.257,-0.7813 -2.246,-1.8047 -2.957,-3.0547 -0.718,-1.2617 -1.195,-2.6953 -1.429,-4.2891 -0.243,-1.6015 -0.36,-3.2226 -0.36,-4.8515 V 1.32422 h -14.5 V 30.9414 c 0,1.5625 -0.035,3.1172 -0.101,4.6484 -0.071,1.5235 -0.36,2.9415 -0.871,4.2305 -0.508,1.2969 -1.364,2.332 -2.551,3.1133 -1.188,0.7812 -2.946,1.1836 -5.262,1.1836 -0.68,0 -1.574,-0.1563 -2.703,-0.4688 -1.125,-0.2929 -2.219,-0.8789 -3.27,-1.7304 -1.05,-0.8594 -1.957,-2.0782 -2.707,-3.6719 -0.75,-1.6094 -1.121,-3.6992 -1.121,-6.2773 V 1.32422 h -14.5 V 54.1172 Z m 79.183,20.1172 h 14.5 V 62.2891 h -14.5 z M 506.977,1.32422 h -14.5 V 54.1172 h 14.5 z M 547.949,54.1172 V 44.418 H 537.324 V 18.2773 c 0,-2.4531 0.414,-4.082 1.231,-4.9062 0.812,-0.8086 2.449,-1.2188 4.902,-1.2188 0.816,0 1.598,0.0313 2.344,0.0977 0.746,0.0703 1.465,0.1758 2.148,0.3125 V 1.32422 c -1.226,-0.20703 -2.59,-0.343751 -4.082,-0.414064 -1.504,-0.054687 -2.965,-0.09375 -4.394,-0.09375 -2.25,0 -4.375,0.15625 -6.383,0.457034 -2.012,0.30469 -3.777,0.89844 -5.313,1.78906 -1.527,0.88672 -2.738,2.13672 -3.625,3.77734 -0.882,1.64063 -1.32,3.78126 -1.32,6.43746 V 44.418 h -8.785 v 9.6992 h 8.785 v 15.8359 h 14.492 V 54.1172 Z m 72.196,-19.9609 c -0.411,2.0117 -1.114,3.7773 -2.094,5.3125 -0.985,1.5234 -2.266,2.7734 -3.828,3.7187 -1.567,0.957 -3.539,1.4336 -5.922,1.4336 -2.383,0 -4.395,-0.4766 -6.028,-1.4336 -1.632,-0.9453 -2.945,-2.207 -3.933,-3.7695 -0.988,-1.5703 -1.699,-3.3594 -2.141,-5.3594 -0.449,-2.0117 -0.668,-4.1055 -0.668,-6.2813 0,-2.0507 0.242,-4.0898 0.719,-6.1328 0.473,-2.039 1.238,-3.8593 2.293,-5.457 1.062,-1.6016 2.383,-2.9023 3.984,-3.8867 1.598,-0.9766 3.528,-1.4766 5.774,-1.4766 2.383,0 4.371,0.4688 5.972,1.4258 1.594,0.957 2.875,2.2266 3.829,3.8281 0.949,1.6016 1.632,3.418 2.043,5.4688 0.406,2.0429 0.613,4.1523 0.613,6.3281 0,2.1797 -0.207,4.2773 -0.613,6.2813 m 0.613,-26.0938 c -1.707,-2.86328 -3.934,-4.92187 -6.692,-6.17187 -2.753,-1.261724 -5.871,-1.88672375 -9.343,-1.88672375 -3.95,0 -7.418,0.76171875 -10.418,2.28515375 -2.992,1.54297 -5.461,3.61328 -7.399,6.23047 -1.941,2.62887 -3.406,5.63677 -4.39,9.04297 -0.989,3.4102 -1.489,6.9453 -1.489,10.6172 0,3.543 0.5,6.9609 1.489,10.2617 0.984,3.3008 2.449,6.2109 4.39,8.7422 1.938,2.5078 4.371,4.5391 7.301,6.0742 2.926,1.5235 6.328,2.293 10.207,2.293 3.141,0 6.117,-0.6641 8.934,-1.9922 2.828,-1.3281 5.058,-3.2813 6.695,-5.8672 h 0.203 v 26.543 h 14.5 V 1.32422 H 620.961 V 8.0625 Z m 57.617,33.6992 c -1.734,1.9141 -4.383,2.8594 -7.922,2.8594 -2.312,0 -4.234,-0.3984 -5.765,-1.1797 -1.532,-0.7812 -2.758,-1.7461 -3.676,-2.9101 -0.918,-1.1524 -1.571,-2.3829 -1.946,-3.6719 -0.371,-1.2891 -0.593,-2.4492 -0.66,-3.4649 h 23.59 c -0.683,3.6719 -1.894,6.4649 -3.621,8.3672 M 661.977,13.9883 c 2.183,-2.1172 5.312,-3.1641 9.394,-3.1641 2.934,0 5.449,0.7227 7.559,2.1992 2.113,1.4532 3.402,3.0079 3.886,4.6485 h 12.762 c -2.043,-6.3399 -5.176,-10.87112 -9.39,-13.58596 -4.227,-2.72266 -9.333,-4.08203375 -15.325,-4.08203375 -4.148,0 -7.894,0.65624975 -11.234,1.98437375 -3.336,1.32813 -6.164,3.21094 -8.477,5.66406 -2.308,2.46096 -4.097,5.37896 -5.355,8.78906 -1.262,3.3984 -1.891,7.1484 -1.891,11.2305 0,3.9453 0.645,7.625 1.942,11.0312 1.289,3.4024 3.132,6.3399 5.511,8.8321 2.379,2.4882 5.223,4.4414 8.524,5.8671 3.305,1.4258 6.969,2.1485 10.98,2.1485 4.496,0 8.41,-0.8672 11.742,-2.6055 3.34,-1.7422 6.075,-4.0742 8.223,-6.9922 2.145,-2.9297 3.695,-6.2695 4.649,-10.0117 0.949,-3.75 1.289,-7.6562 1.015,-11.7383 h -38.086 c 0.199,-4.707 1.399,-8.1054 3.571,-10.2148 m 57.543,40.1289 v -9.7969 h 0.207 c 0.675,1.6328 1.593,3.1445 2.757,4.543 1.164,1.3945 2.485,2.5859 3.981,3.5742 1.5,0.9844 3.094,1.7461 4.805,2.293 1.695,0.5468 3.464,0.8203 5.304,0.8203 0.953,0 2.016,-0.1641 3.164,-0.5156 V 41.5586 c -0.675,0.1367 -1.496,0.2539 -2.449,0.3594 -0.953,0.0976 -1.875,0.1562 -2.754,0.1562 -2.656,0 -4.906,-0.4492 -6.738,-1.3359 -1.84,-0.8789 -3.32,-2.0899 -4.449,-3.625 -1.118,-1.5235 -1.918,-3.3203 -2.391,-5.3594 -0.484,-2.043 -0.719,-4.25 -0.719,-6.6328 V 1.32422 H 705.734 V 54.1172 Z m 71.894,20.1172 V 46.2539 h 29.512 v 27.9805 h 16.031 V 1.32422 H 820.926 V 32.7773 H 791.414 V 1.32422 H 775.379 V 74.2344 Z m 72.492,-36.3477 c 0.274,2.8516 1.227,4.8985 2.86,6.1211 1.632,1.2305 3.879,1.836 6.738,1.836 1.289,0 2.5,-0.0782 3.625,-0.254 1.129,-0.164 2.109,-0.5078 2.969,-1.0156 0.847,-0.5078 1.527,-1.2187 2.035,-2.1484 0.512,-0.918 0.765,-2.1563 0.765,-3.7227 0.075,-1.5 -0.375,-2.6445 -1.328,-3.4258 -0.957,-0.7812 -2.246,-1.375 -3.875,-1.7851 -1.636,-0.4141 -3.511,-0.7149 -5.617,-0.918 -2.113,-0.207 -4.258,-0.4804 -6.437,-0.8203 -2.176,-0.3437 -4.336,-0.8008 -6.481,-1.3789 -2.148,-0.5742 -4.055,-1.4453 -5.722,-2.5977 -1.665,-1.1601 -3.028,-2.7148 -4.083,-4.6484 -1.058,-1.9414 -1.578,-4.4141 -1.578,-7.4023 0,-2.7227 0.45,-5.0782 1.371,-7.05082 0.918,-1.97265 2.196,-3.61328 3.829,-4.90234 1.636,-1.28906 3.543,-2.2461 5.722,-2.863284 2.18,-0.613281 4.528,-0.90624975 7.043,-0.90624975 3.266,0 6.469,0.46874975 9.606,1.42578375 3.129,0.94922 5.851,2.61719 8.168,5 0.066,-0.89063 0.183,-1.75781 0.355,-2.59766 0.172,-0.85937 0.391,-1.6875 0.664,-2.50781 h 14.703 c -0.679,1.08984 -1.152,2.72266 -1.429,4.90234 -0.278,2.1836 -0.403,4.46094 -0.403,6.84374 v 27.461 c 0,3.2148 -0.722,5.7734 -2.148,7.7148 -1.43,1.9336 -3.274,3.457 -5.512,4.5508 -2.254,1.0859 -4.738,1.8164 -7.457,2.1875 -2.723,0.3711 -5.414,0.5664 -8.07,0.5664 -2.922,0 -5.84,-0.293 -8.731,-0.8672 -2.894,-0.5781 -5.496,-1.5547 -7.808,-2.9102 -2.321,-1.3593 -4.223,-3.164 -5.719,-5.4101 -1.504,-2.2461 -2.352,-5.0781 -2.555,-8.4766 z m 18.992,-16.1328 c 0,-0.8203 -0.085,-1.9141 -0.253,-3.2734 -0.168,-1.3672 -0.629,-2.7032 -1.375,-4.0313 -0.758,-1.3281 -1.911,-2.4726 -3.473,-3.4297 -1.567,-0.9453 -3.785,-1.42575 -6.641,-1.42575 -1.156,0 -2.285,0.10938 -3.371,0.3125 -1.086,0.20705 -2.043,0.55855 -2.859,1.06645 -0.817,0.5078 -1.461,1.2109 -1.946,2.0976 -0.472,0.8789 -0.71,1.9727 -0.71,3.2617 0,1.3594 0.238,2.4922 0.71,3.3711 0.485,0.8867 1.118,1.6211 1.899,2.1953 0.785,0.5782 1.703,1.0352 2.754,1.3789 1.055,0.3399 2.129,0.6133 3.215,0.8204 1.164,0.2031 2.316,0.3711 3.472,0.5078 1.16,0.1367 2.266,0.3125 3.325,0.5156 1.05,0.207 2.039,0.457 2.96,0.7617 0.918,0.3047 1.684,0.7344 2.293,1.2774 z m 40.219,32.3633 v -7.3438 h 0.317 c 1.836,3.0547 4.214,5.2813 7.14,6.6875 2.93,1.3868 5.926,2.0899 8.992,2.0899 3.875,0 7.063,-0.5274 9.543,-1.582 2.489,-1.0547 4.446,-2.5196 5.879,-4.3946 1.426,-1.875 2.43,-4.1484 3.004,-6.8437 0.586,-2.6875 0.875,-5.6641 0.875,-8.9375 V 1.32422 H 944.363 V 31.1484 c 0,4.3438 -0.675,7.6055 -2.039,9.7539 -1.363,2.1407 -3.781,3.2149 -7.254,3.2149 -3.949,0 -6.808,-1.1836 -8.578,-3.5274 -1.769,-2.3437 -2.648,-6.2109 -2.648,-11.5937 V 1.32422 H 909.34 V 54.1172 Z m 84.263,-19.9609 c -0.41,2.0117 -1.11,3.7773 -2.09,5.3125 -0.99,1.5234 -2.26,2.7734 -3.83,3.7187 -1.569,0.957 -3.542,1.4336 -5.925,1.4336 -2.387,0 -4.394,-0.4766 -6.023,-1.4336 -1.637,-0.9453 -2.946,-2.207 -3.938,-3.7695 -0.984,-1.5703 -1.699,-3.3594 -2.136,-5.3594 -0.446,-2.0117 -0.665,-4.1055 -0.665,-6.2813 0,-2.0507 0.231,-4.0898 0.711,-6.1328 0.477,-2.039 1.243,-3.8593 2.301,-5.457 1.051,-1.6016 2.379,-2.9023 3.981,-3.8867 1.593,-0.9766 3.519,-1.4766 5.769,-1.4766 2.383,0 4.375,0.4688 5.965,1.4258 1.6,0.957 2.88,2.2266 3.84,3.8281 0.95,1.6016 1.63,3.418 2.04,5.4688 0.41,2.0429 0.62,4.1523 0.62,6.3281 0,2.1797 -0.21,4.2773 -0.62,6.2813 M 1008,8.0625 c -1.71,-2.86328 -3.94,-4.92187 -6.7,-6.17187 -2.745,-1.261724 -5.866,-1.88672375 -9.339,-1.88672375 -3.949,0 -7.422,0.76171875 -10.418,2.28515375 -2.992,1.54297 -5.465,3.61328 -7.398,6.23047 -1.946,2.62887 -3.415,5.63677 -4.395,9.04297 -0.984,3.4102 -1.484,6.9453 -1.484,10.6172 0,3.543 0.5,6.9609 1.484,10.2617 0.98,3.3008 2.449,6.2109 4.395,8.7422 1.933,2.5078 4.371,4.5391 7.296,6.0742 2.926,1.5235 6.332,2.293 10.207,2.293 3.129,0 6.114,-0.6641 8.942,-1.9922 2.83,-1.3281 5.05,-3.2813 6.68,-5.8672 h 0.22 v 26.543 h 14.49 V 1.32422 H 1008.2 V 8.0625 h -0.2"/><path
            id="path44"
            style="fill:#231f20;fill-opacity:1;fill-rule:nonzero;stroke:none"
            d="M 1961.42,327.02 V 98.7734 c 0,-45.8007 -37.12,-82.9296 -82.92,-82.9296 v 0.0195 H 1878 1751.54 1066.33 V 1.36328 h 812.17 c 53.79,0 97.41,43.61332 97.41,97.41012 l 0.02,228.2466 h -14.51"/><path
            id="path46"
            style="fill:#231f20;fill-opacity:1;fill-rule:nonzero;stroke:none"
            d="m 1074.76,66 2.76,-7.8594 -12.05,-3.9843 7.56,-10 -6.74,-5.0118 -7.56,10.5274 -7.15,-10.5274 -6.84,5.0118 7.55,10 -11.84,3.9843 2.75,7.8594 11.55,-4.4922 v 12.7656 h 8.17 V 61.5078 L 1074.76,66"/></g></g></svg>