<svg width="25" height="32" viewBox="0 0 25 32" fill="none" xmlns="http://www.w3.org/2000/svg">
<path d="M8.13263 25.4344C6.7081 25.4344 5.55326 26.8235 5.55326 28.537C5.55326 30.2504 6.7081 31.6395 8.13263 31.6395C9.55644 31.6373 10.7102 30.2496 10.712 28.537C10.712 26.8235 9.55715 25.4344 8.13263 25.4344ZM8.13263 30.0882C7.42033 30.0882 6.84294 29.3937 6.84294 28.537C6.84294 27.6802 7.42033 26.9857 8.13263 26.9857C8.84469 26.9863 9.42184 27.6805 9.42231 28.537C9.42231 29.3937 8.84493 30.0882 8.13263 30.0882ZM18.4501 25.4344C17.0256 25.4344 15.8707 26.8235 15.8707 28.537C15.8707 30.2504 17.0256 31.6395 18.4501 31.6395C19.8739 31.6373 21.0276 30.2496 21.0295 28.537C21.0295 26.8235 19.8746 25.4344 18.4501 25.4344ZM18.4501 30.0882C17.7378 30.0882 17.1604 29.3937 17.1604 28.537C17.1604 27.6802 17.7378 26.9857 18.4501 26.9857C19.1622 26.9863 19.7393 27.6805 19.7398 28.537C19.7398 29.3937 19.1624 30.0882 18.4501 30.0882ZM21.6724 16.2048L24.2322 4.69238C24.2467 4.62733 24.2539 4.56039 24.2539 4.49307C24.254 4.06445 23.9652 3.71688 23.6088 3.71678H4.16022L3.59748 1.19068C3.52192 0.851624 3.26648 0.615773 2.9746 0.615773H1.04559C1.04339 0.615773 1.04158 0.614258 1.03937 0.614258C0.683262 0.614258 0.394531 0.96155 0.394531 1.38989C0.394531 1.81823 0.683262 2.16552 1.03937 2.16552V2.16703L2.47893 2.16552L5.8061 17.1024C5.88166 17.442 6.13757 17.6781 6.42984 17.6781H10.712H19.5597H21.0295C22.0979 17.6781 22.964 18.7199 22.964 20.005C22.964 21.2901 22.0979 22.3319 21.0295 22.3319H2.9739C2.61779 22.3319 2.32906 22.6792 2.32906 23.1075C2.32906 23.5359 2.61779 23.8832 2.9739 23.8832H21.0295C22.8102 23.8832 24.2537 22.1469 24.2537 20.005C24.2537 18.1281 23.145 16.5634 21.6724 16.2048ZM20.3539 16.1269H19.5597H10.712H6.92481L4.50579 5.26804H22.7688L20.3539 16.1269Z" fill="#222222"/>
</svg>
